# xmcd
#
# Track frame offsets:
#	182
#	18632
#	28827
#	39000
#	53715
#	63597
#	81725
#	91700
#	103975
#	114970
#	124452
#	132292
#	139050
#	149642
#	157442
#	161077
#
# Disc length: 2216
#
# Revision: 1
# Processed by: cddbd v1.5.1PL0 Copyright (c) Steve Scherf et al.
# Submitted via: CDex 1.51
# Normalized: r0:DSETVAR1,TDELIM( - )
#
DISCID=ef08a610
DTITLE=Various Artist - The Most Fabulous Voices
DYEAR=1994
DGENRE=Jazz
TTITLE0=Franck Sinatra - Old Man River
TTITLE1=Evelyn Knight - Grandfather's Clock
TTITLE2=Evelyn Knight - The Lass With The Delicate Air
TTITLE3=Bing Crosby - A Friend of Yours
TTITLE4=Bing Crosby - That Sly of Gentlemen
TTITLE5=Three Undred and Forty Fourth ASF Orchestra - How Little We Know
TTITLE6=Three Undred and Forty Fourth ASF Orchestra - I Understand
TTITLE7=Peggy Lee - What More Can a Woman Do
TTITLE8=Peggy Lee - You Was Right, Baby
TTITLE9=Bing Crosby - My heart and I
TTITLE10=Bing Crosby - Too Romantic
TTITLE11=Bing Crosby - All You Want is to Dance
TTITLE12=The King Cole Trio - If You Can't Smile And Say yes
TTITLE13=Dinah Shore - Where Or When
TTITLE14=Dinah Shore - If I Could Be With You One Hour Tonight
TTITLE15=Dinah Shore - Don't Cry
EXTD=YEAR: 1994
EXTT0=
EXTT1=
EXTT2=
EXTT3=
EXTT4=
EXTT5=
EXTT6=
EXTT7=
EXTT8=
EXTT9=
EXTT10=
EXTT11=
EXTT12=
EXTT13=
EXTT14=
EXTT15=
PLAYORDER=
